<svg xmlns="http://www.w3.org/2000/svg" viewBox="0 0 320 200" width="800" height="500">
<rect width="320" height="200" fill="#fafafa"/>
<g fill="none" stroke-linecap="round" stroke-linejoin="round" opacity=".62"><g stroke="#707070" stroke-width="1.9"><path d="M186 44c-13 0-15 6-15 17v14c0 11-4 15-11 15 7 0 11 4 11 15v14c0 11 2 17 15 17"/><path d="M262 44c13 0 15 6 15 17v14c0 11 4 15 11 15-7 0-11 4-11 15v14c0 11-2 17-15 17"/></g><g stroke="#707070" stroke-width="1.5"><path d="M196 78h56M196 96h38"/><path d="M196 118l11 11 21-23"/></g></g>
</svg>
